<?xml version="1.0" standalone="no"?>
<!DOCTYPE svg PUBLIC "-//W3C//DTD SVG 20010904//EN"
 "http://www.w3.org/TR/2001/REC-SVG-20010904/DTD/svg10.dtd">
<svg version="1.0" xmlns="http://www.w3.org/2000/svg"
 width="1024.000000pt" height="1024.000000pt" viewBox="0 0 1024.000000 1024.000000"
 preserveAspectRatio="xMidYMid meet">

<g transform="translate(0.000000,1024.000000) scale(0.100000,-0.100000)"
fill="#000000" stroke="none">
<path d="M4895 8930 c-230 -13 -512 -61 -735 -125 -683 -197 -1305 -594 -1756
-1124 -35 -41 -64 -80 -64 -86 0 -7 15 -16 34 -19 19 -4 56 -22 83 -40 47 -32
48 -33 73 -15 14 9 51 19 82 22 l57 5 -61 -79 c-33 -44 -65 -82 -69 -85 -5 -3
-9 -8 -9 -12 0 -10 834 -13 881 -4 l36 7 -24 38 c-13 21 -38 47 -56 57 -38 24
-111 26 -147 5 -14 -8 -30 -17 -37 -20 -7 -4 -22 3 -34 14 -24 22 -78 41 -116
41 -17 0 -23 6 -23 23 -1 67 -86 166 -162 189 -21 6 -37 14 -36 17 7 15 181
174 251 229 467 370 1029 611 1617 694 149 21 662 17 815 -5 504 -76 885 -219
1326 -499 182 -116 368 -266 546 -441 l152 -149 -28 -38 c-41 -57 -57 -122
-44 -181 5 -27 6 -49 2 -49 -11 0 -79 -73 -85 -92 -5 -16 -9 -15 -46 10 -55
36 -142 38 -208 4 -49 -26 -70 -48 -101 -104 l-19 -38 247 -1 c234 0 655 -8
659 -12 1 -1 29 -47 61 -102 55 -93 111 -202 170 -334 l24 -54 -29 -31 c-17
-17 -38 -47 -47 -66 -22 -42 -32 -159 -17 -187 9 -17 7 -24 -14 -44 -14 -13
-33 -37 -41 -53 l-15 -28 -15 22 c-33 47 -126 64 -188 34 -38 -18 -60 -46 -80
-104 l-14 -40 607 -2 c334 -2 609 -2 611 -1 6 4 -88 120 -145 178 -74 75 -143
121 -213 142 -63 18 -163 20 -206 3 -58 -22 -125 -103 -125 -150 0 -26 -15
-26 -34 2 -35 50 -7 159 57 226 42 44 97 72 158 79 44 5 48 8 36 22 -8 9 -49
93 -91 186 -93 205 -191 385 -297 546 -44 66 -77 124 -74 128 9 15 -103 44
-142 36 -83 -15 -158 -76 -184 -149 -22 -62 -65 -34 -62 39 2 53 24 98 71 148
35 36 121 77 163 77 18 0 15 7 -22 51 -156 187 -420 431 -641 595 -370 274
-890 517 -1301 608 -140 32 -404 73 -502 80 -172 11 -330 14 -460 6z"/>
<path d="M5055 8566 c-17 -12 -19 -28 -19 -161 -1 -134 1 -148 18 -161 25 -18
57 -18 82 0 17 13 19 29 22 148 3 124 2 135 -18 161 -24 30 -56 35 -85 13z"/>
<path d="M4386 8481 c-9 -10 -18 -27 -18 -37 -2 -29 62 -276 78 -301 28 -44
104 -21 104 30 0 42 -63 292 -78 310 -20 23 -65 22 -86 -2z"/>
<path d="M5730 8482 c-16 -13 -30 -52 -56 -162 -19 -80 -32 -155 -29 -168 9
-35 53 -48 84 -24 22 16 32 44 63 163 21 79 35 152 32 161 -14 47 -56 60 -94
30z"/>
<path d="M3740 8258 c-29 -31 -26 -48 27 -135 60 -100 80 -123 113 -123 27 0
70 36 70 58 0 12 -73 138 -112 195 -24 34 -68 37 -98 5z"/>
<path d="M6357 8248 c-32 -30 -136 -209 -143 -246 -11 -52 48 -91 89 -59 20
15 157 245 157 264 0 19 -45 63 -64 63 -8 0 -26 -10 -39 -22z"/>
<path d="M4794 8122 c-6 -4 -16 -16 -22 -28 -24 -46 44 -86 82 -48 22 22 20
50 -6 68 -25 18 -37 19 -54 8z"/>
<path d="M5350 8110 c-25 -25 -26 -52 -2 -73 26 -24 47 -21 71 9 23 29 16 55
-19 74 -25 13 -27 13 -50 -10z"/>
<path d="M3984 7946 c-108 -50 -154 -132 -154 -272 0 -64 -2 -73 -20 -79 -11
-3 -29 -18 -40 -32 -19 -25 -20 -39 -20 -386 l0 -360 -37 7 c-21 3 -87 11
-148 17 -103 11 -120 10 -280 -15 -93 -16 -192 -37 -220 -47 -61 -23 -106 -67
-137 -134 -22 -49 -23 -57 -24 -409 -1 -294 -4 -360 -15 -367 -11 -7 -10 -9 4
-9 12 0 17 -8 17 -29 0 -31 -17 -40 -75 -41 -16 0 -66 -10 -110 -21 -231 -61
-293 -50 -145 25 61 32 108 46 198 61 43 7 64 13 47 14 -97 3 -334 -76 -392
-131 -22 -21 -31 -48 -15 -48 4 0 17 -8 30 -18 l23 -18 -38 -41 c-57 -62 -104
-146 -131 -236 -21 -69 -25 -103 -25 -207 0 -178 27 -269 124 -412 84 -123
229 -237 350 -275 65 -20 73 -28 32 -35 -75 -13 -854 -174 -968 -199 -71 -17
-154 -35 -182 -42 -33 -7 -53 -16 -53 -25 0 -12 60 -13 393 -10 l392 5 275 51
c517 97 926 169 992 175 25 3 51 8 57 12 6 3 11 1 11 -4 0 -7 22 -11 53 -11
74 0 284 27 339 44 26 7 50 11 53 8 3 -3 -50 -19 -117 -34 -211 -48 -665 -159
-843 -205 l-170 -44 155 6 c85 2 353 7 595 11 l440 6 40 28 c128 89 243 120
439 120 183 0 269 -20 377 -88 l37 -22 77 40 c109 55 201 74 334 68 126 -6
188 -27 294 -98 l72 -49 400 -5 c220 -3 829 -8 1353 -12 834 -6 952 -5 952 8
0 24 -172 61 -660 143 -151 26 -281 50 -289 54 -24 14 456 24 780 16 l309 -8
0 117 0 116 -568 0 -568 0 -44 -46 c-25 -25 -74 -65 -110 -89 l-65 -43 -115 7
-115 6 58 34 c249 143 416 383 484 693 25 118 25 420 0 533 -53 232 -147 418
-293 574 -174 187 -402 305 -674 348 -96 15 -111 20 -115 38 -4 23 -18 137
-50 407 -20 179 -21 188 -4 193 10 4 30 20 44 36 19 24 25 42 25 80 0 112 -45
142 -295 198 -162 36 -565 120 -656 136 -24 5 -96 -4 -205 -25 -93 -17 -218
-40 -279 -51 -60 -11 -193 -36 -295 -56 -171 -34 -187 -39 -216 -68 -77 -76
-62 -198 30 -250 16 -9 17 -17 6 -90 -15 -106 -25 -174 -45 -330 -9 -71 -20
-133 -23 -137 -4 -4 -32 -4 -62 0 l-55 7 -3 47 c-2 38 1 49 18 61 12 8 26 32
31 54 12 51 11 285 -1 317 -16 43 -56 61 -130 59 -139 -4 -150 -22 -150 -233
0 -192 16 -230 99 -230 29 0 31 -3 31 -35 0 -32 -2 -34 -27 -30 -16 3 -66 10
-113 15 -47 6 -106 13 -132 17 l-48 6 0 393 0 392 -28 24 c-37 31 -44 52 -36
105 5 36 10 43 23 38 93 -37 183 17 183 111 0 111 -126 167 -248 110z m49
-113 c4 -3 -9 -17 -29 -30 -43 -30 -54 -57 -54 -134 0 -46 -3 -59 -15 -59 -12
0 -15 15 -15 76 0 86 8 107 53 134 34 21 49 24 60 13z m1482 -227 c17 -28 12
-83 -10 -104 -17 -16 -17 -16 -1 8 25 38 19 42 -13 9 -35 -34 -44 -36 -71 -9
-28 28 -25 66 9 100 32 33 64 31 86 -4z m211 -43 c15 -35 19 -93 6 -93 -4 0
-16 30 -26 68 -10 37 -20 74 -23 82 -7 25 28 -22 43 -57z m-1756 -18 c0 -8 -9
-15 -19 -15 -11 0 -23 -6 -28 -12 -4 -7 -9 -168 -9 -356 -1 -206 -6 -348 -11
-353 -6 -6 -22 -7 -37 -3 l-26 6 0 353 c0 383 -2 367 57 385 45 13 73 12 73
-5z m984 -37 c14 -20 13 -25 -17 -66 -18 -25 -37 -47 -43 -49 -16 -5 -42 20
-49 49 -6 22 -1 33 23 58 36 35 65 38 86 8z m339 2 c4 -16 -2 -22 -31 -30 -21
-5 -49 -10 -64 -10 -16 0 -28 -4 -28 -10 0 -5 -6 -7 -14 -4 -8 3 -17 0 -21 -6
-9 -15 -35 7 -35 30 0 14 17 20 88 32 48 9 90 16 93 17 4 0 9 -8 12 -19z
m-523 -89 c0 -26 -23 -44 -38 -29 -17 17 -15 35 5 47 22 12 33 5 33 -18z m830
-258 c-12 -120 -27 -277 -34 -350 -6 -73 -14 -134 -16 -136 -3 -3 -39 -10 -80
-16 -41 -7 -110 -18 -152 -25 -72 -12 -91 -11 -305 20 -125 18 -229 33 -230
33 -2 1 -3 9 -4 19 0 15 -1 15 -8 -2 -18 -47 -19 10 -1 125 11 68 20 130 20
137 0 7 5 10 10 7 6 -4 7 -12 4 -18 -5 -9 -4 -9 5 -2 6 6 13 48 16 94 2 46 7
86 10 89 9 9 5 23 -5 17 -5 -3 -10 -1 -10 4 0 6 5 11 10 11 6 0 10 22 10 48
l0 49 248 41 c455 77 527 88 530 81 2 -5 -6 -106 -18 -226z m627 151 c157 -27
162 -28 167 -53 3 -14 13 -87 21 -161 9 -74 20 -171 26 -215 30 -244 30 -239
-6 -243 -16 -2 -72 -12 -122 -22 -51 -11 -94 -20 -97 -20 -2 0 -6 25 -8 55 -6
75 -31 99 -119 119 -74 17 -198 20 -269 6 -25 -4 -46 -7 -47 -7 -1 1 2 38 7
82 5 44 16 163 25 265 9 102 18 203 21 226 l6 40 116 -22 c65 -12 190 -34 279
-50z m-1804 -270 c-1 -69 -4 -128 -6 -130 -2 -3 -12 -2 -21 2 -14 5 -16 24
-16 123 0 65 3 121 7 124 3 4 13 7 22 7 14 0 16 -17 14 -126z m394 19 c-3 -10
-5 -2 -5 17 0 19 2 27 5 18 2 -10 2 -26 0 -35z m-10 -55 c-3 -7 -5 -2 -5 12 0
14 2 19 5 13 2 -7 2 -19 0 -25z m-1029 -330 l3 -36 -43 9 c-24 4 -49 8 -55 9
-10 0 -13 -48 -13 -208 0 -115 -3 -345 -7 -512 -6 -299 -7 -305 -29 -327 -31
-31 -46 -30 -34 3 6 15 10 227 10 533 0 507 0 508 -22 552 l-23 44 105 -15
105 -16 3 -36z m-327 39 c71 -47 70 -35 67 -580 l-3 -489 -28 -24 c-28 -24
-31 -24 -228 -24 -227 0 -232 2 -244 82 -3 24 -5 239 -3 479 l3 435 27 41 c33
51 78 69 213 87 141 19 158 19 196 -7z m379 -17 c13 -8 12 -10 -3 -10 -10 0
-16 -4 -12 -9 3 -5 1 -12 -5 -16 -6 -4 -10 5 -10 19 0 28 6 31 30 16z m2026
-10 c32 -6 101 -20 152 -31 85 -19 92 -22 92 -45 0 -30 0 -30 -184 1 -81 14
-149 25 -152 25 -7 0 -5 46 3 53 9 9 19 9 89 -3z m-1762 -15 c55 -8 178 -24
271 -35 177 -22 660 -91 778 -112 l67 -11 0 -46 c0 -28 -4 -41 -8 -33 -5 7
-16 10 -25 6 -9 -3 -17 -2 -17 4 0 6 -16 8 -37 5 -21 -2 -56 0 -78 5 l-40 10
55 2 55 2 -55 9 c-37 6 -56 6 -58 -1 -5 -14 -38 -13 -214 11 -129 18 -158 25
-158 38 0 11 -3 12 -8 4 -9 -14 -81 -11 -247 12 -154 21 -152 21 -205 31 l-45
8 35 7 c25 6 18 7 -25 4 -43 -3 -55 -1 -45 6 11 8 5 9 -22 4 -21 -3 -38 -2
-38 3 0 5 -23 12 -51 14 -51 5 -69 18 -69 51 0 22 44 23 184 2z m1466 -147 c0
-13 -4 -61 -9 -108 -5 -47 -12 -125 -15 -175 -12 -170 -28 -340 -35 -347 -6
-7 -127 15 -137 25 -4 4 -43 513 -44 573 0 20 9 23 93 37 135 22 147 21 147
-5z m1095 -8 c-102 -16 -267 -86 -354 -152 -79 -59 -212 -197 -267 -279 -26
-38 -49 -67 -51 -65 -6 5 62 138 95 190 36 54 160 176 228 222 30 20 52 39 50
41 -7 8 -139 -69 -221 -128 -151 -108 -266 -249 -311 -382 -16 -46 -20 -50
-82 -62 -32 -7 -34 -6 -27 16 14 52 98 216 139 273 68 95 180 195 271 243 100
52 167 71 275 78 46 3 86 8 89 10 2 3 52 4 110 4 89 -1 98 -3 56 -9z m390
-159 c279 -100 478 -377 541 -752 13 -80 15 -138 11 -268 -7 -199 -27 -294
-93 -430 -38 -77 -61 -109 -126 -174 -43 -43 -82 -76 -85 -73 -4 3 5 19 19 34
69 75 152 260 185 412 26 122 26 432 -1 545 -44 192 -132 360 -246 475 -123
122 -242 179 -422 201 -80 10 -113 9 -208 -5 -62 -9 -115 -14 -118 -11 -7 7
63 36 138 57 94 25 320 19 405 -11z m-175 -151 c0 -5 -11 -10 -23 -10 -32 0
-144 -37 -185 -61 -18 -10 -72 -28 -120 -38 -48 -11 -122 -31 -164 -45 -100
-34 -102 -34 -95 10 9 52 45 101 93 124 61 30 74 23 29 -16 -22 -20 -32 -34
-22 -30 74 24 222 59 276 66 100 11 211 11 211 0z m-641 -259 c10 -31 8 -35
-26 -67 -20 -19 -37 -34 -39 -34 -1 0 -14 31 -29 69 -26 66 -27 69 -10 102 10
19 31 49 49 67 l31 33 7 -68 c4 -37 11 -83 17 -102z m-1520 119 c115 -15 223
-51 311 -106 152 -93 239 -188 311 -339 58 -120 73 -193 69 -325 -2 -61 -3
-63 -12 -30 -43 154 -65 216 -98 285 -78 160 -199 286 -350 364 -97 50 -162
69 -283 82 -111 11 -230 -4 -333 -42 -42 -16 -84 -22 -157 -24 -115 -2 -114 1
8 60 150 73 339 99 534 75z m1788 -152 l-43 -63 -134 -48 c-184 -66 -202 -59
-72 27 84 56 252 141 285 145 4 1 -12 -27 -36 -61z m-1782 -67 c-11 -5 -51
-18 -90 -30 -42 -12 -91 -37 -122 -60 -29 -22 -71 -45 -95 -52 -23 -6 -87 -29
-141 -50 -54 -22 -103 -37 -108 -34 -5 4 -9 16 -9 28 0 30 43 118 66 138 21
18 114 52 114 41 -1 -4 -21 -22 -45 -40 -52 -38 -60 -60 -13 -36 103 53 291
97 433 102 25 0 26 -1 10 -7z m1374 -101 c76 -102 88 -142 44 -148 -13 -2 -23
-8 -23 -14 0 -5 6 -8 14 -5 15 6 31 -19 17 -27 -10 -7 -117 98 -149 147 l-25
38 17 55 c10 30 21 54 26 52 5 -2 40 -46 79 -98z m-1993 24 c-21 -64 -20 -111
6 -217 l22 -89 -33 -30 c-18 -17 -34 -29 -36 -27 -11 12 -75 156 -75 171 0 30
-19 30 -34 0 -8 -16 -20 -49 -26 -74 -16 -62 -2 -106 65 -210 30 -46 58 -99
61 -116 6 -30 5 -31 -25 -27 -17 2 -29 0 -26 -5 3 -5 12 -7 20 -4 8 4 18 -1
21 -10 20 -52 -52 -10 -118 69 -25 30 -49 51 -53 46 -8 -15 -10 -163 -2 -186
4 -11 34 -39 66 -63 80 -58 151 -121 151 -134 0 -6 -13 -8 -32 -4 l-33 6 25
-20 c32 -25 20 -25 -30 0 -44 23 -52 35 -17 25 17 -4 16 -2 -6 10 -16 9 -35
14 -43 11 -7 -3 -13 -1 -11 4 1 6 -9 16 -23 23 -20 10 -32 34 -59 122 -30 97
-34 123 -35 220 0 77 6 130 18 175 26 94 91 220 144 280 46 53 121 114 130
106 2 -3 -3 -26 -12 -52z m2947 -38 c82 -35 162 -143 193 -260 40 -149 -13
-353 -113 -435 -118 -98 -282 -41 -366 126 -37 73 -50 147 -45 259 3 81 9 110
32 160 29 64 79 120 131 147 37 20 125 22 168 3z m-1566 -24 c30 -19 94 -223
108 -345 l7 -58 96 3 97 3 8 73 c10 82 27 97 27 23 0 -26 3 -76 6 -110 7 -61
7 -61 -20 -61 -18 0 -26 5 -27 18 0 10 -3 12 -6 5 -3 -9 -31 -13 -89 -13 l-84
0 -1 28 c-1 15 -7 -10 -13 -55 -7 -46 -14 -85 -17 -87 -3 -3 -18 61 -33 142
-36 189 -68 313 -100 385 l-25 57 27 0 c15 0 33 -4 39 -8z m926 -95 l-17 -65
-116 -56 c-153 -75 -174 -73 -90 6 66 61 231 190 237 184 2 -2 -5 -32 -14 -69z
m-3648 18 c-16 -14 -33 -25 -37 -25 -5 0 -8 -4 -8 -9 0 -4 30 0 67 10 87 24
113 24 113 0 0 -10 -6 -23 -12 -29 -15 -11 -178 -62 -226 -69 l-33 -5 16 38
c20 48 51 83 90 100 49 21 63 16 30 -11z m-181 -44 c-12 -36 -12 -55 -2 -128
10 -69 10 -87 0 -91 -7 -2 -19 -11 -28 -20 -18 -17 -20 -16 -55 51 -10 20 -22
37 -25 37 -10 0 -34 -70 -34 -102 0 -18 11 -51 25 -73 49 -82 65 -115 71 -150
3 -20 1 -35 -4 -35 -17 0 -108 76 -132 110 -18 26 -21 39 -15 76 17 113 84
252 156 323 29 28 53 50 55 48 2 -1 -4 -22 -12 -46z m2357 -54 c56 -30 133
-124 160 -197 32 -86 37 -211 10 -298 -52 -172 -191 -259 -328 -207 -96 37
-183 164 -205 299 -28 169 51 358 172 410 54 23 139 20 191 -7z m-579 -24
c-10 -15 -28 -48 -39 -73 -24 -55 -30 -59 -123 -98 -81 -33 -150 -49 -149 -36
1 22 315 251 327 240 2 -3 -5 -17 -16 -33z m1692 -72 c96 -73 116 -95 116
-126 0 -13 -4 -14 -20 -5 -22 12 -27 1 -8 -18 22 -22 -21 -13 -70 15 -96 54
-129 89 -141 143 -6 28 -11 60 -11 72 0 24 -11 30 134 -81z m-2506 79 c135 0
142 -1 142 -20 0 -20 -7 -20 -380 -20 -209 0 -380 2 -380 4 0 2 -3 11 -6 20
-5 14 16 16 178 18 100 2 210 2 243 1 33 -1 124 -3 203 -3z m-760 -147 c-11
-27 -25 -53 -32 -60 -12 -13 -179 -73 -203 -73 -8 0 -13 4 -11 9 10 26 229
171 259 171 4 0 -1 -21 -13 -47z m3614 -55 c-5 -71 -7 -75 -113 -138 -36 -23
-78 -40 -94 -40 -28 0 -22 8 90 120 66 66 120 120 120 120 1 0 -1 -28 -3 -62z
m-3027 -62 c-27 -13 -70 -45 -94 -71 l-44 -48 -24 27 c-13 15 -23 40 -23 57 0
27 -3 29 -35 29 l-35 0 0 -50 c0 -123 88 -214 188 -195 31 6 34 5 23 -9 -18
-21 -77 -39 -103 -30 -89 28 -152 123 -164 246 l-7 66 184 1 184 0 -50 -23z
m936 -83 c-4 -35 -9 -64 -12 -66 -2 -2 -34 -22 -70 -45 -76 -47 -133 -72 -162
-72 -18 0 -16 5 18 41 42 44 228 209 231 206 2 -1 -1 -30 -5 -64z m1754 -43
c66 -37 145 -97 145 -110 0 -9 -103 19 -162 44 -62 27 -43 3 22 -28 67 -32 92
-54 34 -30 -45 19 -110 59 -119 75 -4 6 -16 38 -26 71 l-18 59 32 -24 c18 -13
59 -38 92 -57z m-3322 -28 l-6 -51 -77 -41 c-74 -38 -129 -52 -115 -30 9 14
199 180 202 176 1 -1 0 -25 -4 -54z m3670 -131 c-16 -25 -34 -47 -41 -47 -7
-1 -17 -2 -23 -3 -8 -1 -7 -7 2 -18 11 -15 11 -16 -1 -6 -19 17 -22 43 -4 36
8 -3 14 0 14 6 0 6 -5 11 -10 11 -6 0 1 12 15 28 14 15 36 42 48 59 l22 33 3
-26 c2 -16 -8 -44 -25 -73z m-2638 17 c42 -142 140 -285 265 -391 68 -58 162
-110 218 -122 43 -9 39 -11 -30 -19 -41 -5 -58 -4 -58 4 0 6 4 9 8 6 4 -2 14
-1 22 5 11 6 0 9 -35 10 -56 2 -142 -2 -167 -6 -9 -2 -38 -6 -65 -9 -45 -5
-44 -4 15 10 35 9 62 17 60 19 -2 2 -32 24 -67 50 l-64 47 -101 -11 c-160 -18
-370 -41 -382 -41 -6 0 21 33 60 73 103 105 168 238 182 373 l7 64 56 0 57 0
19 -62z m-1275 -46 c14 -11 30 -34 37 -52 12 -32 12 -32 -15 -25 -15 3 -32 13
-38 20 -6 8 -13 13 -15 10 -13 -12 -61 45 -74 88 l-14 47 47 -34 c26 -19 58
-44 72 -54z m3432 -5 c97 -256 319 -467 558 -531 l55 -15 -47 0 c-57 -1 -311
62 -349 87 -15 9 -58 36 -96 58 l-68 42 -145 5 c-80 4 -203 7 -275 7 -125 1
-129 2 -105 18 81 55 216 218 248 302 6 14 17 42 26 63 l16 37 78 0 77 0 27
-73z m-1463 -135 c45 -66 130 -151 181 -181 58 -35 13 -24 -60 15 -102 54
-173 142 -210 263 -30 94 -24 105 15 28 20 -38 53 -94 74 -125z m-1630 33 c24
-47 62 -106 84 -132 28 -31 34 -42 19 -34 -37 20 -98 88 -120 134 -20 42 -39
117 -30 117 2 0 24 -38 47 -85z m3782 -24 c62 -83 151 -166 214 -199 68 -36
12 -24 -63 13 -102 52 -198 168 -226 275 -6 23 -5 23 6 6 7 -11 38 -53 69 -95z
m-491 9 c0 -15 -5 -12 -26 11 -19 22 -19 22 4 10 12 -6 22 -16 22 -21z m95 0
c3 -6 -1 -7 -9 -4 -18 7 -21 14 -7 14 6 0 13 -4 16 -10z m-55 -16 c0 -8 -19
-13 -24 -6 -3 5 1 9 9 9 8 0 15 -2 15 -3z m-44 -334 c15 -6 25 -13 22 -15 -3
-3 -22 1 -44 9 -21 8 -31 15 -22 15 9 1 29 -4 44 -9z m-2261 -20 c-11 -5 -29
-8 -40 -8 -16 0 -15 2 5 8 34 11 60 11 35 0z m-115 -30 c0 -5 -2 -10 -4 -10
-3 0 -8 5 -11 10 -3 6 -1 10 4 10 6 0 11 -4 11 -10z"/>
<path d="M4797 6933 c-11 -10 -8 -53 3 -53 6 0 10 14 10 30 0 31 -2 35 -13 23z"/>
<path d="M4780 6844 c0 -8 5 -12 10 -9 6 3 10 10 10 16 0 5 -4 9 -10 9 -5 0
-10 -7 -10 -16z"/>
<path d="M4782 6770 c0 -14 2 -19 5 -12 2 6 2 18 0 25 -3 6 -5 1 -5 -13z"/>
<path d="M3282 6653 c-23 -2 -40 -7 -38 -11 3 -5 -10 -6 -27 -4 -72 7 -136
-74 -137 -170 0 -38 6 -54 30 -81 16 -19 43 -40 60 -47 98 -41 223 88 163 168
-25 34 -49 39 -58 13 -10 -33 -46 -71 -66 -71 -37 0 -75 61 -62 97 10 27 40
63 46 56 4 -3 10 2 13 11 5 13 9 14 14 6 6 -9 13 -9 29 -1 12 7 21 8 21 2 0
-5 15 -18 34 -29 48 -28 69 -73 64 -133 -5 -53 -44 -113 -84 -131 -33 -15 -30
-25 9 -38 l32 -10 -31 4 c-17 3 -53 -2 -80 -10 -30 -9 -64 -12 -87 -8 -48 8
-67 -8 -67 -54 l0 -35 193 5 c107 3 198 8 204 11 16 10 17 380 2 409 -27 54
-53 62 -177 51z"/>
<path d="M3420 6176 c0 -2 7 -6 15 -10 8 -3 15 -1 15 4 0 6 -7 10 -15 10 -8 0
-15 -2 -15 -4z"/>
<path d="M3315 6128 c-44 -4 -114 -9 -156 -12 -42 -2 -82 -6 -88 -10 -6 -4
-11 -23 -11 -43 l0 -36 194 5 c107 3 198 8 203 11 4 3 7 25 5 49 -4 50 0 49
-147 36z"/>
<path d="M3445 6010 c3 -5 8 -10 11 -10 2 0 4 5 4 10 0 6 -5 10 -11 10 -5 0
-7 -4 -4 -10z"/>
<path d="M3235 5969 c-175 -12 -175 -12 -175 -53 0 -19 6 -36 13 -39 20 -7
380 2 388 10 4 5 5 27 2 51 l-6 42 -46 -1 c-25 -1 -104 -6 -176 -10z"/>
<path d="M3448 5848 c-3 -22 -9 -23 -123 -30 -66 -4 -147 -8 -180 -8 -68 -2
-85 -11 -85 -49 0 -40 17 -51 85 -53 60 -1 60 -1 15 -8 l-45 -6 45 -5 c25 -2
68 -1 95 3 28 4 70 10 95 13 25 3 59 9 75 13 30 8 30 9 31 80 2 72 -2 93 -8
50z"/>
<path d="M4218 6583 c12 -2 32 -2 45 0 12 2 2 4 -23 4 -25 0 -35 -2 -22 -4z"/>
<path d="M4303 6573 c9 -2 25 -2 35 0 9 3 1 5 -18 5 -19 0 -27 -2 -17 -5z"/>
<path d="M4370 6566 c0 -2 9 -6 20 -9 11 -3 20 -1 20 4 0 5 -9 9 -20 9 -11 0
-20 -2 -20 -4z"/>
<path d="M4453 6553 c9 -2 23 -2 30 0 6 3 -1 5 -18 5 -16 0 -22 -2 -12 -5z"/>
<path d="M4698 6523 c7 -3 16 -2 19 1 4 3 -2 6 -13 5 -11 0 -14 -3 -6 -6z"/>
<path d="M4763 6513 c9 -2 25 -2 35 0 9 3 1 5 -18 5 -19 0 -27 -2 -17 -5z"/>
<path d="M4820 6508 c0 -5 18 -8 40 -8 22 0 40 2 40 4 0 2 -18 6 -40 8 -22 2
-40 0 -40 -4z"/>
<path d="M4938 6493 c7 -3 16 -2 19 1 4 3 -2 6 -13 5 -11 0 -14 -3 -6 -6z"/>
<path d="M7108 5523 c43 -62 55 -162 28 -228 -9 -20 -11 -35 -5 -35 18 0 41
73 41 126 0 53 -21 116 -49 146 -25 28 -36 21 -15 -9z"/>
<path d="M6988 5480 c-72 -56 -54 -183 29 -211 32 -10 37 -9 59 13 14 13 27
40 31 60 17 108 -54 190 -119 138z"/>
<path d="M6823 5302 l-42 -3 14 -45 c18 -61 52 -109 99 -140 39 -26 55 -27
113 -2 15 7 33 12 38 13 6 0 21 7 35 15 24 13 23 14 -38 27 -72 14 -97 30
-143 93 -32 42 -37 45 -76 42z"/>
<path d="M2470 5135 c0 -2 10 -10 23 -16 20 -11 21 -11 8 4 -13 16 -31 23 -31
12z"/>
<path d="M4755 5473 c-48 -25 -72 -51 -97 -106 -19 -45 -23 -69 -23 -167 0
-109 2 -118 29 -168 100 -180 272 -183 364 -8 24 46 27 61 27 156 0 95 -3 110
-29 162 -29 60 -89 122 -132 138 -38 15 -105 11 -139 -7z m184 -127 c46 -43
71 -100 71 -166 0 -107 -58 -180 -140 -180 -74 0 -130 50 -160 143 -6 21 -18
37 -26 37 -12 0 -14 9 -9 48 4 26 13 52 21 58 8 7 12 19 8 30 -5 15 -4 16 4 4
9 -12 14 -12 31 4 11 10 18 24 14 30 -3 6 -3 8 1 4 4 -3 26 2 49 12 52 24 92
17 136 -24z"/>
<path d="M4834 5266 c-26 -26 -34 -42 -34 -71 0 -101 95 -151 161 -86 24 24
29 38 29 76 0 40 -5 52 -34 81 -22 22 -44 34 -61 34 -17 0 -39 -12 -61 -34z"/>
<path d="M6361 4971 c-8 -15 -7 -20 6 -26 10 -3 14 -3 10 1 -4 4 -2 13 4 20 6
8 7 14 0 18 -6 4 -15 -2 -20 -13z"/>
<path d="M3233 7940 c-26 -10 -40 -52 -27 -80 5 -11 56 -67 112 -125 73 -74
111 -105 127 -105 24 0 65 42 65 66 0 13 -148 187 -196 232 -27 23 -45 26 -81
12z"/>
<path d="M6888 7940 c-26 -16 -204 -223 -212 -247 -8 -26 31 -73 61 -73 20 0
206 188 229 231 18 36 4 76 -31 89 -31 12 -26 12 -47 0z"/>
<path d="M2243 7463 c-24 -8 -43 -18 -43 -22 0 -4 -48 -79 -106 -167 -77 -115
-143 -235 -243 -436 -128 -258 -136 -278 -114 -278 37 0 119 -35 162 -69 73
-58 111 -176 79 -246 -15 -34 -24 -32 -32 7 -11 54 -54 106 -112 134 -47 23
-63 26 -132 23 -110 -6 -192 -47 -293 -149 -42 -43 -90 -97 -105 -121 -16 -24
-33 -47 -37 -50 -14 -10 4 -14 63 -14 30 0 303 2 607 3 l552 2 -11 33 c-27 80
-86 127 -160 127 -45 0 -104 -29 -114 -55 -8 -20 -24 -19 -24 0 0 9 -18 35
-39 58 -32 35 -37 46 -29 61 14 26 4 125 -17 167 -10 19 -33 53 -51 76 l-34
42 36 82 c71 162 204 389 331 566 40 56 78 113 85 128 11 25 10 30 -24 60 -35
33 -92 56 -133 54 -11 0 -39 -7 -62 -16z"/>
<path d="M1546 6841 c-26 -29 -18 -81 16 -100 59 -33 120 28 87 87 -19 35 -76
43 -103 13z"/>
<path d="M8511 6841 c-55 -55 18 -140 83 -97 35 23 42 53 19 85 -26 34 -74 40
-102 12z"/>
<path d="M2231 6816 c-17 -18 -22 -32 -17 -50 7 -29 30 -42 175 -102 110 -45
129 -45 151 -3 21 39 2 58 -121 119 -65 33 -129 60 -142 60 -13 0 -34 -11 -46
-24z"/>
<path d="M7733 6787 c-157 -73 -180 -98 -129 -146 29 -27 34 -26 202 47 82 36
112 54 124 75 14 27 14 29 -13 53 -15 13 -38 24 -50 23 -12 0 -72 -24 -134
-52z"/>
<path d="M1928 5608 c-28 -22 -31 -55 -9 -77 26 -26 111 -29 135 -5 23 22 20
71 -3 84 -27 14 -104 13 -123 -2z"/>
<path d="M8118 5608 c-23 -18 -30 -51 -16 -71 19 -26 101 -34 133 -13 30 20
33 56 7 79 -22 20 -101 23 -124 5z"/>
<path d="M1654 5370 c-30 -12 -37 -39 -19 -67 16 -23 18 -24 148 -21 l131 3
10 33 c5 18 16 32 25 33 9 0 -6 7 -34 14 -55 15 -228 19 -261 5z"/>
<path d="M8250 5371 c-19 -5 -26 -15 -28 -37 -5 -50 11 -55 159 -52 l134 3 10
29 c8 24 6 31 -14 47 -20 16 -39 19 -130 18 -58 -1 -117 -4 -131 -8z"/>
<path d="M1446 5108 c-22 -31 -20 -64 4 -88 19 -19 33 -20 293 -20 149 0 282
3 295 6 21 6 23 11 20 63 l-3 56 -297 3 -297 2 -15 -22z"/>
<path d="M7846 5121 c-4 -5 -9 -30 -12 -54 -6 -39 -4 -46 15 -56 15 -8 141
-11 437 -9 398 3 416 4 430 22 20 28 17 63 -6 86 -19 19 -33 20 -439 20 -244
0 -422 -4 -425 -9z"/>
<path d="M1456 4877 c-26 -19 -32 -87 -10 -114 19 -21 27 -22 336 -29 296 -6
319 -5 362 12 25 11 46 22 46 25 0 4 -12 32 -26 63 l-25 56 -333 0 c-255 0
-336 -3 -350 -13z"/>
<path d="M7775 4883 c-12 -3 -28 -23 -41 -53 l-22 -48 25 -24 25 -23 466 3
c288 2 471 7 479 14 35 29 21 121 -20 132 -25 6 -881 6 -912 -1z"/>
<path d="M1440 4505 l0 -115 128 1 c332 1 668 19 802 41 l134 23 -50 37 c-28
21 -70 58 -93 83 l-41 45 -440 0 -440 0 0 -115z"/>
<path d="M4665 4194 c-62 -10 -150 -36 -189 -56 -52 -26 -172 -122 -186 -149
-11 -20 -12 -20 -31 5 -28 36 -133 83 -214 97 -70 12 -165 10 -490 -11 -198
-12 -300 -26 -338 -45 -25 -13 -33 -13 -63 0 -62 26 -181 45 -277 45 -174 0
-340 -63 -439 -168 -28 -29 -51 -52 -52 -50 -2 2 -17 24 -35 49 -67 96 -184
149 -324 149 -76 0 -228 -27 -288 -50 -115 -46 -203 -142 -227 -251 -7 -29
-28 -196 -48 -369 -19 -173 -48 -423 -64 -555 -48 -397 -53 -444 -48 -534 6
-121 54 -210 144 -270 78 -51 143 -56 334 -27 590 91 1023 132 1900 181 151 8
372 23 490 32 270 21 287 21 385 -1 61 -14 102 -17 175 -13 110 7 163 22 261
73 64 34 71 36 87 21 26 -24 139 -72 201 -87 39 -9 88 -10 180 -4 175 11 386
9 586 -5 94 -6 294 -18 445 -26 639 -35 1245 -93 1779 -171 149 -21 181 -23
230 -13 114 23 202 95 242 197 34 86 30 177 -34 807 -31 308 -59 592 -63 630
-19 229 -105 345 -304 407 -65 20 -96 23 -225 23 -166 0 -218 -12 -316 -75
-26 -18 -52 -29 -57 -26 -16 10 -262 44 -502 70 -354 39 -770 62 -1016 57 -38
-1 -61 -8 -90 -27 -36 -25 -40 -26 -69 -11 -49 26 -104 36 -210 38 -85 3 -105
6 -130 25 -77 56 -194 94 -291 94 -109 0 -240 -36 -325 -91 l-47 -30 -58 36
c-33 19 -88 45 -124 56 -64 20 -205 32 -265 23z m210 -295 c79 -24 140 -78
150 -132 9 -45 -17 -96 -56 -110 l-29 -11 0 -552 0 -553 -25 -19 c-64 -50
-228 -55 -327 -10 -104 48 -186 164 -207 293 -13 83 -14 709 -1 791 17 107 66
187 153 251 100 73 216 91 342 52z m732 -11 c54 -27 107 -91 123 -146 16 -58
13 -247 -4 -261 -9 -7 -40 -11 -78 -9 l-63 3 -6 69 c-5 59 -10 73 -33 93 -55
47 -145 20 -182 -53 -17 -36 -19 -67 -22 -367 -3 -366 1 -403 59 -452 30 -25
94 -34 134 -19 26 10 45 59 45 117 0 62 5 67 78 67 73 0 76 -5 80 -125 8 -208
-13 -264 -113 -304 -80 -32 -196 -32 -277 -1 -114 43 -213 165 -238 295 -8 41
-10 181 -8 440 l3 380 32 67 c51 108 140 193 236 224 64 21 176 13 234 -18z
m-1626 -64 c74 -21 121 -61 156 -132 28 -57 28 -57 28 -262 0 -194 -1 -208
-24 -257 -22 -50 -66 -98 -121 -134 l-25 -16 74 -239 c92 -297 91 -291 56
-304 -38 -14 -178 -13 -197 2 -10 8 -41 95 -73 203 -31 105 -65 218 -76 253
l-21 62 -49 0 -49 0 0 -269 c0 -222 -2 -270 -14 -274 -30 -12 -201 -18 -216
-8 -13 9 -15 96 -18 659 -1 401 1 659 7 675 11 28 12 28 231 45 187 14 269 13
331 -4z m-977 -27 c53 -15 129 -86 154 -145 12 -28 24 -84 28 -128 6 -70 4
-82 -14 -104 -17 -21 -30 -25 -95 -28 -99 -5 -117 5 -117 64 0 77 -30 113 -95
114 -54 0 -87 -18 -107 -60 -16 -32 -18 -74 -18 -430 0 -441 -2 -430 69 -451
32 -10 43 -8 78 9 65 34 73 54 73 192 l0 120 -35 0 c-40 0 -75 28 -76 63 -3
72 4 134 16 146 19 19 288 29 310 11 13 -11 15 -61 15 -364 0 -193 -4 -356 -8
-362 -24 -37 -119 -47 -151 -15 -10 10 -21 25 -23 32 -3 10 -13 4 -32 -18 -37
-44 -117 -68 -202 -60 -113 11 -182 56 -231 151 -47 92 -51 143 -51 545 0 478
10 527 130 638 57 52 94 71 172 88 64 15 143 12 210 -8z m2956 3 c19 -19 20
-33 20 -550 l0 -530 26 -10 c14 -6 86 -10 160 -10 172 0 174 -1 174 -128 0
-83 -2 -89 -22 -98 -14 -6 -85 -7 -183 -3 -88 4 -190 8 -227 8 -46 1 -71 6
-82 17 -14 14 -16 87 -16 651 0 723 -6 673 82 673 35 0 54 -6 68 -20z m704 -2
c14 -20 16 -99 16 -663 0 -352 -3 -650 -6 -662 -3 -12 -12 -24 -19 -27 -27
-10 -196 7 -211 21 -12 12 -14 117 -14 664 0 429 4 657 10 670 10 17 22 19
110 19 91 0 100 -2 114 -22z m1658 -31 c61 -26 70 -50 89 -240 144 -1408 136
-1267 71 -1267 -54 0 -164 20 -179 31 -14 12 -21 53 -32 207 -5 62 -11 116
-14 119 -3 3 -48 10 -99 17 -51 6 -98 15 -105 19 -30 18 -27 121 4 152 13 14
30 15 105 9 l90 -7 -6 39 c-3 22 -8 73 -11 114 -3 41 -10 125 -15 185 -5 61
-14 178 -21 260 -13 176 -23 195 -94 195 -56 0 -91 -28 -99 -78 -6 -39 -46
-514 -71 -857 -18 -244 -23 -296 -34 -314 -7 -11 -24 -11 -99 -1 -49 7 -95 16
-101 20 -9 5 -9 52 -1 186 6 98 12 215 15 259 2 44 7 138 11 209 6 108 5 128
-7 124 -8 -2 -54 -55 -104 -116 l-89 -112 -103 0 -104 0 -37 60 c-20 33 -57
94 -82 135 -25 41 -48 75 -52 75 -5 0 -8 -161 -8 -357 0 -197 -3 -368 -6 -380
-8 -30 -35 -37 -124 -34 -121 4 -110 -68 -110 686 0 493 3 654 12 663 20 20
162 16 186 -5 12 -10 70 -99 131 -198 165 -271 202 -326 214 -322 7 2 63 64
126 138 249 295 325 364 439 396 64 18 264 12 314 -10z m-6223 3 c10 -5 23
-28 30 -52 11 -43 185 -1004 223 -1232 22 -135 23 -131 -57 -141 -27 -3 -69
-9 -92 -12 -53 -7 -53 -6 -83 173 -12 70 -23 130 -25 132 -6 6 -179 -18 -187
-26 -4 -4 -14 -68 -23 -142 -9 -74 -18 -145 -21 -157 -7 -25 -42 -38 -136 -49
-101 -12 -101 -13 -63 301 14 116 35 287 46 380 10 94 33 280 49 415 17 135
33 269 36 298 9 73 34 100 104 111 76 12 178 13 199 1z"/>
<path d="M4674 3641 c-57 -35 -59 -50 -59 -446 0 -319 2 -364 17 -391 23 -42
41 -55 87 -61 46 -6 96 18 105 51 11 41 6 796 -5 818 -11 21 -66 48 -96 48
-10 0 -32 -9 -49 -19z"/>
<path d="M3693 3613 l-33 -4 0 -196 0 -196 87 7 c97 8 146 25 162 54 12 22 15
269 5 297 -15 39 -98 53 -221 38z"/>
<path d="M1980 3284 c0 -5 -9 -74 -19 -154 -11 -80 -22 -184 -26 -232 l-7 -88
54 0 c29 0 58 4 65 8 12 8 0 115 -42 375 -12 77 -25 122 -25 91z"/>
<path d="M4972 1950 c-40 -10 -78 -23 -85 -27 -7 -4 -271 -10 -587 -13 -565
-5 -576 -5 -615 -27 -22 -11 -50 -32 -62 -45 -75 -80 -68 -224 14 -301 55 -51
82 -54 541 -56 479 -3 471 -2 639 -81 225 -106 296 -106 530 -1 59 27 126 55
148 62 29 9 169 14 495 19 512 7 510 7 574 82 86 100 61 249 -52 315 l-47 28
-575 6 c-562 5 -576 6 -640 27 -93 33 -188 37 -278 12z"/>
<path d="M2312 1775 c-39 -17 -66 -72 -57 -116 4 -16 21 -40 38 -55 79 -66
194 21 154 117 -8 19 -20 39 -28 45 -25 20 -73 24 -107 9z"/>
<path d="M2673 1779 c-42 -12 -63 -44 -63 -96 0 -30 7 -50 24 -70 49 -57 155
-27 171 47 9 40 -18 96 -54 114 -34 18 -33 18 -78 5z"/>
<path d="M3013 1775 c-39 -17 -53 -42 -53 -94 0 -61 35 -96 95 -96 40 0 51 5
76 33 47 53 35 127 -26 157 -40 18 -51 18 -92 0z"/>
<path d="M7070 1772 c-50 -24 -68 -80 -43 -131 22 -44 62 -65 108 -57 41 8 85
57 85 94 0 53 -54 112 -103 112 -7 0 -28 -8 -47 -18z"/>
<path d="M7443 1783 c-33 -6 -73 -59 -73 -96 0 -71 51 -115 117 -102 69 13
102 82 72 149 -11 23 -65 58 -86 55 -4 -1 -18 -4 -30 -6z"/>
<path d="M7782 1779 c-30 -11 -62 -59 -62 -91 0 -79 76 -131 143 -97 73 37 77
141 8 182 -28 16 -55 18 -89 6z"/>
<path d="M1587 1723 c-9 -2 -24 -18 -33 -35 -15 -29 -15 -32 4 -57 l19 -26
246 -3 c236 -2 248 -1 267 18 24 24 25 57 4 85 -14 19 -28 20 -252 22 -130 0
-245 -1 -255 -4z"/>
<path d="M8090 1710 c-11 -11 -20 -31 -20 -45 0 -14 9 -34 20 -45 19 -19 33
-20 264 -20 l245 0 20 26 c27 34 26 50 -4 79 l-24 25 -241 0 c-227 0 -241 -1
-260 -20z"/>
</g>
</svg>
